<svg width="200" height="200" viewBox="0 0 200 200" fill="none" xmlns="http://www.w3.org/2000/svg">
<path d="M80.2011 76.4753C89.0627 76.4753 96.2474 69.3057 96.2474 60.4627C96.2474 51.6198 89.0627 44.4502 80.2011 44.4502C71.3395 44.4502 64.1548 51.6198 64.1548 60.4627C64.1548 69.3057 71.3395 76.4753 80.2011 76.4753Z" fill="#333333"/>
<path fill-rule="evenodd" clip-rule="evenodd" d="M51.9915 85.2019L58.7777 85.0098C79.2809 85.0098 95.9269 101.609 95.9269 122.055L96.0212 156.318C96.0212 163.133 101.569 168.665 108.403 168.665L113.792 168.665L113.792 168.639C120.723 168.639 126.176 174.18 126.176 181.001C126.176 187.824 120.722 193.363 113.792 193.363L108.403 193.363C87.9017 193.363 71.2557 176.764 71.2557 156.318L71.1614 122.055C71.1614 115.239 65.6114 109.707 58.7777 109.707L51.9915 109.899C45.1497 109.899 39.5957 104.359 39.5957 97.5356C39.5957 90.7142 45.1497 85.1759 51.9915 85.1759L51.9915 85.2019Z" fill="#333333"/>
<path fill-rule="evenodd" clip-rule="evenodd" d="M45.6131 6.82985L129.539 6.63771C150.043 6.63772 166.689 23.2367 166.689 43.6827L166.783 119.432C166.783 126.247 142.017 139.878 142.017 119.432L141.923 43.6827C141.923 36.8674 136.373 31.3351 129.539 31.3351L45.6131 31.5272C38.7713 31.5272 33.2173 25.9868 33.2173 19.1635C33.2173 12.3422 38.7713 6.80383 45.6131 6.80383L45.6131 6.82985Z" fill="#333333"/>
<path fill-rule="evenodd" clip-rule="evenodd" d="M114.933 161.667L129.54 161.859C150.043 161.859 166.689 145.26 166.689 124.814L166.783 87.8014C166.783 80.986 142.018 67.3554 142.018 87.8014L141.923 124.814C141.923 131.63 136.373 137.162 129.54 137.162L114.933 136.97C108.092 136.97 102.538 142.51 102.538 149.334C102.538 156.155 108.092 161.693 114.933 161.693L114.933 161.667Z" fill="#333333"/>
</svg>
